<svg xmlns="http://www.w3.org/2000/svg" viewBox="0 0 227.57 24.79"><defs><style>.cls-1{font-size:10.62px;fill:#b3b3b3;font-family:Helvetica-Light, Helvetica;}.cls-2{fill:#ed2891;stroke:#ed2891;}.cls-2,.cls-3,.cls-4{stroke-miterlimit:10;stroke-width:0.94px;}.cls-3{fill:#fee000;stroke:#fee000;}.cls-4{fill:#5bcae8;stroke:#5bcae8;}.cls-5{fill:#1a1a1a;}</style></defs><title>Asset 1</title><g id="Layer_2" data-name="Layer 2"><g id="Layer_1-2" data-name="Layer 1"><text class="cls-1" transform="translate(0 20.68)">created by</text><path class="cls-2" d="M76.37,24.28H71L65.67.47h6.21l2.59,14.21Z"/><path class="cls-3" d="M90.81,14.69,93.4.47h6.21L94.3,24.28H88.93Z"/><path class="cls-4" d="M76.83,14.59,80.46,2.31h4.32l3.66,12.28-1.59,8.28L82.64,9.58,78.47,22.87Z"/><path class="cls-5" d="M177.28,15.86,179.09,7h3.8l-3.37,14.21h-4l-2.12-8.1-2.08,8.1h-4L164,7h3.8l1.82,8.91,2.28-7.45h3Z"/><path class="cls-5" d="M122,16.35a5.19,5.19,0,0,1-.8,2.62,4.83,4.83,0,0,1-2.09,1.76,7,7,0,0,1-3,.62,5.58,5.58,0,0,1-4.41-1.82,7.53,7.53,0,0,1-1.59-5.15v-.7a8.6,8.6,0,0,1,.73-3.65,5.51,5.51,0,0,1,2.09-2.42,5.84,5.84,0,0,1,3.18-.86,6.12,6.12,0,0,1,4.16,1.36A5.38,5.38,0,0,1,122,11.86H118.6a2.55,2.55,0,0,0-.65-1.86,2.69,2.69,0,0,0-1.86-.57,2,2,0,0,0-1.87,1,6.14,6.14,0,0,0-.62,3.05v1a6.8,6.8,0,0,0,.57,3.25,2.09,2.09,0,0,0,2,1,2.63,2.63,0,0,0,1.8-.56,2.36,2.36,0,0,0,.66-1.77Z"/><path class="cls-5" d="M123,15.78a6.23,6.23,0,0,1,.61-2.81,4.4,4.4,0,0,1,1.77-1.9,5.32,5.32,0,0,1,2.7-.66,4.85,4.85,0,0,1,3.74,1.47,5.64,5.64,0,0,1,1.37,4V16a5.47,5.47,0,0,1-1.37,3.92,4.87,4.87,0,0,1-3.77,1.43A4.92,4.92,0,0,1,124.47,20a5.28,5.28,0,0,1-1.38-3.66Zm3.29.2a3.93,3.93,0,0,0,.46,2.15,1.53,1.53,0,0,0,1.36.68q1.76,0,1.8-2.7v-.33q0-2.84-1.81-2.84-1.65,0-1.79,2.45Z"/><path class="cls-5" d="M134.26,15.8a6.45,6.45,0,0,1,1.08-4,3.57,3.57,0,0,1,3-1.44,3,3,0,0,1,2.38,1.11V6.17h3.37v15h-3L140.92,20a3.11,3.11,0,0,1-2.58,1.33,3.56,3.56,0,0,1-3-1.44A6.65,6.65,0,0,1,134.26,15.8Zm3.29.2q0,2.81,1.64,2.81a1.62,1.62,0,0,0,1.56-.92v-4a1.58,1.58,0,0,0-1.54-.94q-1.52,0-1.65,2.46Z"/><path class="cls-5" d="M151,21.35a5.43,5.43,0,0,1-3.93-1.44,5,5,0,0,1-1.5-3.77v-.27a6.48,6.48,0,0,1,.6-2.86,4.39,4.39,0,0,1,1.75-1.92,5.29,5.29,0,0,1,2.73-.68,4.57,4.57,0,0,1,3.51,1.38,5.43,5.43,0,0,1,1.29,3.85v1.28h-6.54a2.37,2.37,0,0,0,.77,1.4,2.29,2.29,0,0,0,1.54.51,3,3,0,0,0,2.44-1.09l1.5,1.78a4.2,4.2,0,0,1-1.74,1.35A5.89,5.89,0,0,1,151,21.35Zm-.37-8.41q-1.44,0-1.72,1.91h3.32V14.6a1.63,1.63,0,0,0-.4-1.22A1.59,1.59,0,0,0,150.65,12.94Z"/><path class="cls-5" d="M183.35,15.78A6.23,6.23,0,0,1,184,13a4.4,4.4,0,0,1,1.77-1.9,5.32,5.32,0,0,1,2.7-.66,4.85,4.85,0,0,1,3.74,1.47,5.64,5.64,0,0,1,1.37,4V16a5.47,5.47,0,0,1-1.37,3.92,4.87,4.87,0,0,1-3.71,1.45A4.92,4.92,0,0,1,184.84,20a5.28,5.28,0,0,1-1.47-3.66Zm3.29.2a3.93,3.93,0,0,0,.45,2.15,1.53,1.53,0,0,0,1.36.68q1.76,0,1.8-2.7v-.33q0-2.84-1.81-2.84-1.65,0-1.79,2.45Z"/><path class="cls-5" d="M201.37,13.58l-1.08-.08a2,2,0,0,0-2,1v6.68H195V10.6h3.08L198.2,12a2.55,2.55,0,0,1,2.31-1.55,3.21,3.21,0,0,1,.92.12Z"/><path class="cls-5" d="M206.8,17.23l-.93.93v3h-3.29v-15h3.29v8l.33-.44,2.48-3.08h3.94L208.92,15l3.94,6.21h-3.77Z"/><path class="cls-5" d="M219,18.19a.76.76,0,0,0-.44-.67A6.69,6.69,0,0,0,216.9,17a7.59,7.59,0,0,1-2-.72,3.39,3.39,0,0,1-1.22-1.08,2.57,2.57,0,0,1-.42-1.45,2.92,2.92,0,0,1,1.2-2.4,4.94,4.94,0,0,1,3.14-.94,5.48,5.48,0,0,1,3.36.95,3,3,0,0,1,1.27,2.49h-3.3q0-1.27-1.34-1.27a1.33,1.33,0,0,0-.87.29.89.89,0,0,0-.35.72.82.82,0,0,0,.43.71,4.05,4.05,0,0,0,1.37.45,11.89,11.89,0,0,1,1.65.42,3,3,0,0,1,2.38,2.94,2.77,2.77,0,0,1-1.28,2.35,5.63,5.63,0,0,1-3.32.91,5.74,5.74,0,0,1-2.42-.49,4,4,0,0,1-1.66-1.33,3,3,0,0,1-.6-1.77H216a1.27,1.27,0,0,0,.49,1.07,2,2,0,0,0,1.2.34,1.58,1.58,0,0,0,1-.27A.87.87,0,0,0,219,18.19Z"/><path class="cls-5" d="M225.76,18a1.87,1.87,0,0,1,1.3.46,1.62,1.62,0,0,1,.08,2.29l-.08.08a2,2,0,0,1-2.6,0,1.62,1.62,0,0,1-.07-2.29l.07-.07A1.86,1.86,0,0,1,225.76,18Z"/></g></g></svg>